<?xml version="1.0" encoding="UTF-8"?>
<svg xmlns="http://www.w3.org/2000/svg" xmlns:xlink="http://www.w3.org/1999/xlink" width="854" height="480" viewBox="0 0 854 480">
<defs>
<g>
<g id="glyph-0-0">
<path d="M 1.449219 0 L 0.144531 0 L 0.144531 -0.179688 C 0.183594 -0.183594 0.230469 -0.1875 0.277344 -0.191406 C 0.324219 -0.195312 0.363281 -0.203125 0.394531 -0.210938 C 0.445312 -0.226562 0.480469 -0.257812 0.507812 -0.296875 C 0.53125 -0.335938 0.546875 -0.390625 0.546875 -0.457031 L 0.546875 -3.554688 C 0.546875 -3.621094 0.53125 -3.683594 0.503906 -3.738281 C 0.476562 -3.796875 0.4375 -3.839844 0.394531 -3.875 C 0.359375 -3.894531 0.300781 -3.914062 0.214844 -3.933594 C 0.128906 -3.953125 0.0585938 -3.960938 0.00390625 -3.964844 L 0.00390625 -4.140625 L 1.011719 -4.199219 L 1.050781 -4.160156 L 1.050781 -0.488281 C 1.050781 -0.425781 1.0625 -0.371094 1.085938 -0.332031 C 1.109375 -0.292969 1.148438 -0.261719 1.199219 -0.238281 C 1.238281 -0.21875 1.277344 -0.207031 1.316406 -0.199219 C 1.355469 -0.1875 1.398438 -0.183594 1.449219 -0.179688 Z "/>
</g>
<g id="glyph-0-1">
<path d="M 2.804688 -1.363281 C 2.804688 -1.175781 2.773438 -0.992188 2.714844 -0.808594 C 2.65625 -0.628906 2.570312 -0.472656 2.460938 -0.347656 C 2.335938 -0.203125 2.191406 -0.09375 2.027344 -0.0234375 C 1.859375 0.046875 1.675781 0.0820312 1.472656 0.0820312 C 1.300781 0.0820312 1.140625 0.0507812 0.984375 -0.015625 C 0.832031 -0.078125 0.695312 -0.171875 0.574219 -0.296875 C 0.457031 -0.417969 0.363281 -0.566406 0.292969 -0.738281 C 0.226562 -0.914062 0.191406 -1.109375 0.191406 -1.328125 C 0.191406 -1.746094 0.3125 -2.085938 0.554688 -2.351562 C 0.796875 -2.617188 1.117188 -2.75 1.511719 -2.75 C 1.886719 -2.75 2.195312 -2.625 2.441406 -2.371094 C 2.683594 -2.121094 2.804688 -1.785156 2.804688 -1.363281 M 2.242188 -1.359375 C 2.242188 -1.496094 2.230469 -1.636719 2.203125 -1.789062 C 2.175781 -1.941406 2.136719 -2.066406 2.082031 -2.171875 C 2.023438 -2.285156 1.945312 -2.375 1.851562 -2.441406 C 1.757812 -2.511719 1.644531 -2.542969 1.507812 -2.542969 C 1.367188 -2.542969 1.25 -2.511719 1.148438 -2.441406 C 1.050781 -2.371094 0.972656 -2.277344 0.910156 -2.160156 C 0.851562 -2.050781 0.808594 -1.921875 0.785156 -1.78125 C 0.761719 -1.640625 0.75 -1.503906 0.75 -1.371094 C 0.75 -1.199219 0.765625 -1.039062 0.792969 -0.890625 C 0.820312 -0.742188 0.867188 -0.613281 0.929688 -0.496094 C 0.988281 -0.378906 1.066406 -0.289062 1.160156 -0.222656 C 1.253906 -0.15625 1.371094 -0.125 1.507812 -0.125 C 1.734375 -0.125 1.914062 -0.234375 2.046875 -0.453125 C 2.175781 -0.671875 2.242188 -0.972656 2.242188 -1.359375 Z "/>
</g>
<g id="glyph-0-2">
<path d="M 2.835938 -2.507812 C 2.757812 -2.496094 2.679688 -2.464844 2.605469 -2.421875 C 2.53125 -2.375 2.46875 -2.296875 2.417969 -2.1875 C 2.308594 -1.945312 2.199219 -1.691406 2.085938 -1.429688 C 1.972656 -1.164062 1.855469 -0.890625 1.730469 -0.597656 C 1.695312 -0.515625 1.65625 -0.417969 1.617188 -0.304688 C 1.574219 -0.191406 1.539062 -0.0820312 1.503906 0.0234375 L 1.292969 0.0234375 C 1.121094 -0.402344 0.960938 -0.789062 0.816406 -1.136719 C 0.671875 -1.488281 0.523438 -1.847656 0.367188 -2.214844 C 0.328125 -2.296875 0.273438 -2.363281 0.191406 -2.40625 C 0.109375 -2.453125 0.03125 -2.484375 -0.0507812 -2.496094 L -0.0507812 -2.675781 L 1.1875 -2.675781 L 1.1875 -2.484375 C 1.132812 -2.484375 1.0625 -2.472656 0.984375 -2.449219 C 0.902344 -2.429688 0.859375 -2.402344 0.859375 -2.367188 C 0.859375 -2.359375 0.867188 -2.347656 0.875 -2.324219 C 0.882812 -2.300781 0.890625 -2.277344 0.902344 -2.246094 C 0.976562 -2.0625 1.082031 -1.804688 1.214844 -1.472656 C 1.351562 -1.144531 1.460938 -0.878906 1.546875 -0.675781 C 1.609375 -0.832031 1.691406 -1.023438 1.789062 -1.253906 C 1.890625 -1.484375 1.996094 -1.746094 2.109375 -2.03125 C 2.128906 -2.078125 2.144531 -2.125 2.160156 -2.167969 C 2.175781 -2.210938 2.1875 -2.253906 2.1875 -2.296875 C 2.1875 -2.324219 2.171875 -2.355469 2.140625 -2.378906 C 2.109375 -2.402344 2.074219 -2.421875 2.035156 -2.441406 C 1.992188 -2.460938 1.953125 -2.472656 1.910156 -2.480469 C 1.871094 -2.492188 1.839844 -2.496094 1.8125 -2.5 L 1.8125 -2.675781 L 2.835938 -2.675781 Z "/>
</g>
<g id="glyph-0-3">
<path d="M 2.570312 -0.628906 C 2.460938 -0.414062 2.308594 -0.246094 2.121094 -0.121094 C 1.933594 0.0078125 1.71875 0.0703125 1.472656 0.0703125 C 1.257812 0.0703125 1.070312 0.03125 0.90625 -0.0429688 C 0.746094 -0.121094 0.613281 -0.222656 0.507812 -0.351562 C 0.402344 -0.484375 0.324219 -0.636719 0.273438 -0.808594 C 0.222656 -0.980469 0.195312 -1.164062 0.195312 -1.359375 C 0.195312 -1.53125 0.222656 -1.703125 0.277344 -1.871094 C 0.332031 -2.039062 0.414062 -2.1875 0.519531 -2.320312 C 0.625 -2.449219 0.75 -2.554688 0.90625 -2.632812 C 1.058594 -2.710938 1.230469 -2.75 1.417969 -2.75 C 1.613281 -2.75 1.78125 -2.71875 1.921875 -2.660156 C 2.058594 -2.597656 2.171875 -2.511719 2.261719 -2.40625 C 2.34375 -2.304688 2.40625 -2.1875 2.445312 -2.046875 C 2.488281 -1.910156 2.507812 -1.761719 2.507812 -1.601562 L 2.507812 -1.421875 L 0.734375 -1.421875 C 0.734375 -1.246094 0.75 -1.085938 0.785156 -0.941406 C 0.820312 -0.800781 0.871094 -0.671875 0.945312 -0.566406 C 1.015625 -0.460938 1.105469 -0.378906 1.222656 -0.316406 C 1.335938 -0.253906 1.46875 -0.226562 1.628906 -0.226562 C 1.789062 -0.226562 1.925781 -0.261719 2.042969 -0.339844 C 2.160156 -0.414062 2.273438 -0.550781 2.382812 -0.746094 L 2.570312 -0.628906 M 1.972656 -1.648438 C 1.972656 -1.75 1.964844 -1.859375 1.945312 -1.972656 C 1.929688 -2.089844 1.902344 -2.1875 1.863281 -2.261719 C 1.820312 -2.347656 1.765625 -2.414062 1.691406 -2.464844 C 1.621094 -2.519531 1.527344 -2.542969 1.414062 -2.542969 C 1.222656 -2.542969 1.066406 -2.464844 0.941406 -2.308594 C 0.8125 -2.148438 0.746094 -1.929688 0.734375 -1.648438 Z "/>
</g>
</g>
</defs>
<g fill="rgb(100%, 100%, 100%)" fill-opacity="1">
<use xlink:href="#glyph-0-0" x="30" y="25.094727"/>
<use xlink:href="#glyph-0-1" x="32" y="25.094727"/>
<use xlink:href="#glyph-0-2" x="35" y="25.094727"/>
<use xlink:href="#glyph-0-3" x="38" y="25.094727"/>
</g>
</svg>
